<svg xmlns="http://www.w3.org/2000/svg" width="67" height="66" viewBox="0 0 67 66" fill="none">
  <path d="M62.9893 38.4661L62.9701 38.4756C60.7078 40.2106 59.7493 43.1629 60.5545 45.8949L60.5641 45.9142C61.8485 50.2565 58.6662 54.637 54.1416 54.7521H54.1225C51.2659 54.8288 48.7545 56.65 47.8054 59.3436V59.3531C46.2908 63.6283 41.1339 65.3058 37.405 62.7271C35.0896 61.1461 32.0287 61.0636 29.5927 62.7271H29.5831C25.8544 65.2961 20.6972 63.6282 19.1923 59.3435C18.7277 58.0288 17.8752 56.886 16.7473 56.0661C15.6194 55.2463 14.2692 54.7881 12.8753 54.752H12.8561C8.33177 54.6369 5.1492 50.2564 6.43375 45.914L6.44329 45.8948C7.24831 43.1628 6.28976 40.2104 4.02772 38.4755L4.00851 38.466C0.41383 35.7052 0.41383 30.299 4.00851 27.5383L4.02772 27.5288C6.28976 25.7938 7.24831 22.8414 6.43375 20.1094V20.0902C5.13953 15.748 8.33164 11.3673 12.8561 11.2523H12.8753C15.7222 11.1756 18.2432 9.35428 19.1923 6.66078V6.65124C20.6971 2.37607 25.8544 0.698612 29.5831 3.27725H29.5927C31.9411 4.89722 35.0468 4.89722 37.405 3.27725C41.1714 0.676311 46.2997 2.40172 47.8054 6.65124V6.66078C48.7545 9.34474 51.2658 11.1757 54.1225 11.2523H54.1416C58.6661 11.3673 61.8485 15.748 60.5641 20.0902L60.5545 20.1094C59.7493 22.8414 60.7078 25.7938 62.9701 27.5288L62.9893 27.5383C66.584 30.299 66.584 35.7053 62.9893 38.4661Z" fill="url(#paint0_linear_594_2367)"/>
  <path d="M33.4963 50.8557C43.3578 50.8557 51.352 42.8614 51.352 33C51.352 23.1386 43.3578 15.1443 33.4963 15.1443C23.6349 15.1443 15.6406 23.1386 15.6406 33C15.6406 42.8614 23.6349 50.8557 33.4963 50.8557Z" fill="url(#paint1_linear_594_2367)"/>
  <path d="M29.253 39.9901L25.3045 35.7893C24.2704 34.6889 24.3237 32.9589 25.4237 31.9248C26.5237 30.8894 28.2545 30.945 29.2877 32.0445L31.1725 34.049L39.1844 24.8918C40.1775 23.7554 41.9049 23.6401 43.0422 24.6346C44.1786 25.6291 44.2934 27.356 43.2994 28.4924L33.3021 39.918C32.237 41.134 30.3575 41.1658 29.253 39.9901Z" fill="#FF5E2D"/>
  <defs>
    <linearGradient id="paint0_linear_594_2367" x1="19.012" y1="2.41456" x2="33.4998" y2="72.439" gradientUnits="userSpaceOnUse">
      <stop stop-color="#6BD7FD"/>
      <stop offset="1" stop-color="#0068A9"/>
    </linearGradient>
    <linearGradient id="paint1_linear_594_2367" x1="44.3631" y1="50.7073" x2="33.4963" y2="15.1443" gradientUnits="userSpaceOnUse">
      <stop stop-color="#D7D9E4"/>
      <stop offset="0.701923" stop-color="white"/>
    </linearGradient>
  </defs>
</svg>