<svg viewBox="0 0 13 26" xmlns="http://www.w3.org/2000/svg"><path d="M11.398 22.267c-.484.192-2.017.649-2.717.242a.694.694 0 0 1-.34-.553c-.22-1.425.825-4.719 1.39-6.487.188-.59.322-1.019.376-1.279.408-1.923.206-3.394-.6-4.372C8.534 8.642 6.812 8.413 5.4 8.626c-1.437.195-2.84.588-4.174 1.17a.446.446 0 0 0-.242.319l-.291 1.42a.467.467 0 0 0 .148.44.458.458 0 0 0 .448.082c.534-.202 2.201-.654 2.797-.096.337.315.243.982.108 1.48-.139.52-.305 1.082-.475 1.672-1.103 3.824-2.358 8.16-.368 9.511a5.51 5.51 0 0 0 3.273 1.165c1.165 0 2.604-.374 4.675-1.229a.447.447 0 0 0 .265-.287l.426-1.449a.47.47 0 0 0-.126-.47.442.442 0 0 0-.466-.087zM8.807.21a3.2 3.2 0 0 0-1.801.558c-.533.364-.949.88-1.194 1.484a3.364 3.364 0 0 0-.184 1.91c.125.64.434 1.229.888 1.691a3.225 3.225 0 0 0 1.66.904c.629.128 1.28.063 1.873-.187s1.1-.673 1.456-1.216a3.35 3.35 0 0 0-.403-4.175A3.216 3.216 0 0 0 8.807.21z"/></svg>