<svg viewBox="0 0 31 33" fill="none" xmlns="http://www.w3.org/2000/svg">
<path d="M9.64868 25.2243C9.04734 24.6996 8.20206 23.5626 6.84998 22.2034C6.0816 21.4615 4.2867 20.1172 3.67626 19.3624C3.25475 18.9136 3.0401 18.3089 3.08426 17.6948C3.13797 16.533 4.04705 15.5923 5.20633 15.4989C6.11808 15.5044 7.00814 15.7775 7.76604 16.2843C8.29083 16.6157 8.78712 16.9903 9.24977 17.404C9.59148 17.6941 9.68694 17.8181 10.073 18.153C10.4591 18.4879 10.7422 18.8429 10.4739 18.2889C10.1865 17.4535 9.6995 16.0507 9.15673 14.8192C8.74285 13.8835 8.66123 13.7389 8.31134 13.0404C7.96144 12.3419 7.72084 11.7469 7.3337 10.9487C6.96862 10.1614 6.64514 9.35553 6.3646 8.53434C5.93802 7.49722 5.87739 6.34573 6.1927 5.26955C6.68301 4.58822 7.53443 4.26787 8.35225 4.45701C9.21786 4.86855 9.93405 5.53913 10.4016 6.37583C11.0659 7.38825 11.5912 8.48527 11.9635 9.63751C12.5727 11.3018 13.5933 13.7061 13.7108 14.2181C13.5871 13.5825 13.206 12.266 13.2093 11.6414C13.2064 10.9915 13.5408 10.3865 14.0927 10.0432C14.5737 9.78667 15.108 9.64605 15.653 9.63254C16.2072 9.64023 16.7386 9.85474 17.1428 10.234C17.7359 11.1587 18.1638 12.1793 18.4074 13.2505C18.2697 12.2977 18.2494 11.3317 18.3468 10.3741C18.5551 9.91374 18.9175 9.54055 19.3716 9.31884C19.9192 9.10448 20.5012 8.99121 21.0893 8.98451C21.5853 9.04956 22.0498 9.26381 22.4212 9.59887C22.9623 10.4391 23.3697 11.3582 23.629 12.3233C23.6758 12.5638 23.6188 11.63 23.8797 10.9552C23.9626 10.334 24.3707 9.80416 24.9501 9.56534C25.5296 9.32653 26.1924 9.41499 26.689 9.79741C27.1855 10.1798 27.4404 10.7981 27.3574 11.4193C27.5748 12.5359 27.5647 12.4844 27.7118 13.2402C27.8589 13.996 27.9893 14.6659 28.113 15.3015C28.2461 16.3189 28.3027 17.3448 28.2825 18.3707C28.1531 19.2999 27.8979 20.2073 27.5238 21.0678C26.8703 22.1576 26.3851 23.34 26.0848 24.5748C26.0652 25.163 26.1198 25.7514 26.2474 26.326C26.3495 26.8599 26.5223 27.3779 26.7611 27.8662C26.0732 28.0772 25.365 28.215 24.6482 28.2774C23.9583 28.3048 22.873 27.1254 22.5694 26.7566C22.4158 26.5567 22.1625 26.4609 21.9151 26.509C21.6676 26.5572 21.4687 26.7411 21.4013 26.9839C21.1505 27.7102 20.5394 29.0593 19.9688 29.2417C18.8446 29.6031 16.4474 29.9271 14.575 30.2915C14.575 30.2915 14.5499 28.5136 13.7252 28.0322C12.9006 27.5509 12.0387 26.9699 11.4126 26.5926L9.64868 25.2243Z" fill="white"/>
<path fill-rule="evenodd" clip-rule="evenodd" d="M9.64868 25.2243C9.04734 24.6996 8.20206 23.5626 6.84998 22.2034C6.0816 21.4615 4.2867 20.1172 3.67626 19.3624C3.25475 18.9136 3.0401 18.3089 3.08426 17.6948C3.13797 16.533 4.04705 15.5923 5.20633 15.4989C6.11808 15.5044 7.00814 15.7775 7.76604 16.2843C8.29083 16.6157 8.78712 16.9903 9.24977 17.404C9.59148 17.6941 9.68694 17.8181 10.073 18.153C10.4591 18.4879 10.7422 18.8429 10.4739 18.2889C10.1865 17.4535 9.6995 16.0507 9.15673 14.8192C8.74285 13.8835 8.66123 13.7389 8.31134 13.0404C7.96144 12.3419 7.72084 11.7469 7.3337 10.9487C6.96862 10.1614 6.64514 9.35553 6.3646 8.53434C5.93802 7.49722 5.87739 6.34573 6.1927 5.26955C6.68301 4.58822 7.53443 4.26787 8.35225 4.45701C9.21786 4.86855 9.93405 5.53913 10.4016 6.37583C11.0659 7.38825 11.5912 8.48527 11.9635 9.63751C12.5727 11.3018 13.5933 13.7061 13.7108 14.2181C13.5871 13.5825 13.206 12.266 13.2093 11.6414C13.2064 10.9915 13.5408 10.3865 14.0927 10.0432C14.5737 9.78667 15.108 9.64605 15.653 9.63254C16.2072 9.64023 16.7386 9.85474 17.1428 10.234C17.7359 11.1587 18.1638 12.1793 18.4074 13.2505C18.2697 12.2977 18.2494 11.3317 18.3468 10.3741C18.5551 9.91374 18.9175 9.54055 19.3716 9.31884C19.9192 9.10448 20.5012 8.99121 21.0893 8.98451C21.5853 9.04956 22.0498 9.26381 22.4212 9.59887C22.9623 10.4391 23.3697 11.3582 23.629 12.3233C23.6758 12.5638 23.6188 11.63 23.8797 10.9552C23.9626 10.334 24.3707 9.80416 24.9501 9.56534C25.5296 9.32653 26.1924 9.41499 26.689 9.79741C27.1855 10.1798 27.4404 10.7981 27.3574 11.4193C27.5748 12.5359 27.5647 12.4844 27.7118 13.2402C27.8589 13.996 27.9893 14.6659 28.113 15.3015C28.2461 16.3189 28.3027 17.3448 28.2825 18.3707C28.1531 19.2999 27.8979 20.2073 27.5238 21.0678C26.8703 22.1576 26.3851 23.34 26.0848 24.5748C26.0652 25.163 26.1198 25.7514 26.2474 26.326C26.3495 26.8599 26.5223 27.3779 26.7611 27.8662C26.0732 28.0772 25.365 28.215 24.6482 28.2774C23.9583 28.3048 22.873 27.1254 22.5694 26.7566C22.4158 26.5567 22.1625 26.4609 21.9151 26.509C21.6676 26.5572 21.4687 26.7411 21.4013 26.9839C21.1505 27.7102 20.5394 29.0593 19.9688 29.2417C18.8446 29.6031 16.4474 29.9271 14.575 30.2915C14.575 30.2915 14.5499 28.5136 13.7252 28.0322C12.9006 27.5509 12.0387 26.9699 11.4126 26.5926L9.64868 25.2243Z" stroke="black" stroke-width="1.3125" stroke-linecap="round" stroke-linejoin="round"/>
<path d="M24.3978 23.3269L23.2437 17.3975C23.1746 17.0426 22.8302 16.811 22.4745 16.8802C22.1187 16.9495 21.8863 17.2933 21.9554 17.6482L23.1094 23.5776C23.1785 23.9325 23.5229 24.1641 23.8787 24.0949C24.2344 24.0256 24.4668 23.6818 24.3978 23.3269Z" fill="black"/>
<path d="M20.9961 23.9868L19.8072 18.0611C19.7362 17.7074 19.3906 17.4785 19.0352 17.5498C18.6799 17.6211 18.4493 17.9656 18.5203 18.3192L19.7093 24.245C19.7802 24.5986 20.1258 24.8275 20.4812 24.7563C20.8366 24.685 21.0671 24.3405 20.9961 23.9868Z" fill="black"/>
<path d="M15.0859 18.994L16.2726 24.9075C16.3442 25.2645 16.6904 25.4962 17.0457 25.4248C17.401 25.3535 17.631 25.0062 17.5594 24.6492L16.3728 18.7357C16.3011 18.3787 15.955 18.1471 15.5996 18.2184C15.2443 18.2897 15.0143 18.637 15.0859 18.994Z" fill="black"/>
</svg>
