<svg width="35" height="35" fill="none" xmlns="http://www.w3.org/2000/svg"><path d="m31.987 9.057-.005-.044a6.4 6.4 0 0 0-1.838-3.855 6.412 6.412 0 0 0-3.858-1.836c-2.137-.223-5.66-.336-8.967-.336-3.307 0-6.83.113-8.968.336a6.412 6.412 0 0 0-3.858 1.836 6.405 6.405 0 0 0-1.839 3.855l-.004.044c-.185 1.773-.33 2.058-.33 5.798s.145 4.343.33 6.116l.005.045a6.399 6.399 0 0 0 1.838 3.855 6.413 6.413 0 0 0 3.858 1.836c1.18.122 2.781.212 4.535.267l3.403 5.404c.51.811 1.694.811 2.204 0L21.9 26.97c1.697-.055 3.242-.143 4.388-.262a6.413 6.413 0 0 0 3.859-1.836 6.407 6.407 0 0 0 1.838-3.855l.004-.045c.185-1.773.331-2.376.331-6.116 0-3.74-.146-4.023-.33-5.797h-.002zM17.315 24.025a1.99 1.99 0 1 1-.001-3.98 1.99 1.99 0 0 1 .001 3.98zm2.672-9.174c-1.317 1.03-1.341 1.748-1.341 2.994 0 .456-.24.982-1.413.982-.982 0-1.318-.359-1.318-1.605 0-2.06.91-3.041 1.605-3.64.79-.67 2.132-1.413 2.132-2.707 0-1.101-.958-1.628-2.156-1.628-2.442 0-1.916 1.844-3.21 1.844-.646 0-1.437-.431-1.437-1.365 0-1.293 1.485-3.21 4.719-3.21 3.065 0 5.101 1.7 5.101 3.952s-2.036 3.88-2.682 4.383z" fill="url(#a)"/><mask id="c" style="mask-type:alpha" maskUnits="userSpaceOnUse" x="2" y="2" width="31" height="31"><path d="m31.987 9.057-.005-.044a6.4 6.4 0 0 0-1.838-3.855 6.412 6.412 0 0 0-3.858-1.836c-2.137-.223-5.66-.335-8.967-.335-3.307 0-6.83.112-8.968.335a6.412 6.412 0 0 0-3.858 1.836 6.405 6.405 0 0 0-1.839 3.855l-.004.044c-.185 1.774-.33 2.058-.33 5.798s.145 4.343.33 6.116l.005.045a6.4 6.4 0 0 0 1.838 3.855 6.412 6.412 0 0 0 3.858 1.836c1.18.122 2.781.212 4.535.267l3.403 5.404c.51.811 1.694.811 2.204 0L21.9 26.97c1.697-.056 3.242-.144 4.388-.263a6.413 6.413 0 0 0 3.859-1.836 6.408 6.408 0 0 0 1.838-3.855l.004-.045c.185-1.773.331-2.376.331-6.116 0-3.74-.146-4.023-.33-5.797h-.002zM17.315 24.025a1.99 1.99 0 1 1-.001-3.98 1.99 1.99 0 0 1 .001 3.98zm2.672-9.174c-1.317 1.03-1.341 1.749-1.341 2.994 0 .456-.24.982-1.413.982-.982 0-1.318-.359-1.318-1.605 0-2.06.91-3.041 1.605-3.64.79-.67 2.132-1.413 2.132-2.706 0-1.102-.958-1.63-2.156-1.63-2.442 0-1.916 1.845-3.21 1.845-.646 0-1.437-.431-1.437-1.365 0-1.293 1.485-3.21 4.719-3.21 3.065 0 5.101 1.7 5.101 3.952s-2.036 3.88-2.682 4.383z" fill="url(#b)"/></mask><g mask="url(#c)"><path opacity=".5" d="M27.958 24.5c-4 2.8-15.333 2.5-20.5 2l7 11c6.333-3.333 20-10.2 24-11 5-1 .5-14.5 0-23s-17-1-12 0 6.5 17.5 1.5 21z" fill="#04B9F8"/></g><defs><linearGradient id="a" x1="2.319" y1="17.986" x2="32.318" y2="17.986" gradientUnits="userSpaceOnUse"><stop stop-color="#74DBFF"/><stop offset=".6" stop-color="#5FD6FF"/><stop offset="1" stop-color="#3ECEFF"/></linearGradient><linearGradient id="b" x1="2.319" y1="17.987" x2="32.318" y2="17.987" gradientUnits="userSpaceOnUse"><stop stop-color="#74DBFF"/><stop offset=".6" stop-color="#5FD6FF"/><stop offset="1" stop-color="#3ECEFF"/></linearGradient></defs></svg>