<svg viewBox="0 0 30 32" fill="none" xmlns="http://www.w3.org/2000/svg">
<path d="M20.9763 24.5992C21.5777 24.0744 22.4229 22.9375 23.775 21.5783C24.5434 20.8364 26.3383 19.492 26.9487 18.7373C27.3703 18.2884 27.5849 17.6838 27.5407 17.0696C27.487 15.9079 26.5779 14.9672 25.4187 14.8738C24.5069 14.8793 23.6169 15.1524 22.859 15.6592C22.3342 15.9906 21.8379 16.3651 21.3752 16.7789C21.0335 17.0689 20.9381 17.193 20.552 17.5279C20.1659 17.8628 19.8828 18.2178 20.1511 17.6638C20.4385 16.8283 20.9255 15.4255 21.4683 14.194C21.8821 13.2584 21.9638 13.1138 22.3137 12.4153C22.6636 11.7168 22.9042 11.1218 23.2913 10.3235C23.6564 9.53629 23.9799 8.73041 24.2604 7.90922C24.687 6.8721 24.7476 5.72061 24.4323 4.64442C23.942 3.9631 23.0906 3.64275 22.2728 3.83188C21.4071 4.24343 20.691 4.91401 20.2234 5.75071C19.5591 6.76313 19.0338 7.86015 18.6615 9.01238C18.0523 10.6767 17.0317 13.081 16.9142 13.5929C17.0379 12.9574 17.419 11.6409 17.4157 11.0163C17.4186 10.3663 17.0842 9.76138 16.5323 9.41807C16.0513 9.16155 15.517 9.02093 14.972 9.00742C14.4178 9.0151 13.8864 9.22961 13.4822 9.60887C12.8891 10.5335 12.4612 11.5542 12.2176 12.6253C12.3553 11.6726 12.3756 10.7066 12.2782 9.74894C12.0699 9.28862 11.7075 8.91543 11.2534 8.69372C10.7058 8.47936 10.1238 8.36608 9.53568 8.35939C9.0397 8.42443 8.5752 8.63869 8.20377 8.97374C7.66269 9.81395 7.25526 10.733 6.99603 11.6982C6.94922 11.9387 7.00617 11.0049 6.74528 10.3301C6.66237 9.70885 6.25433 9.17904 5.67487 8.94022C5.09541 8.7014 4.43256 8.78987 3.93601 9.17229C3.43946 9.55471 3.18464 10.173 3.26755 10.7942C3.05024 11.9108 3.06027 11.8592 2.91316 12.6151C2.76605 13.3709 2.63566 14.0408 2.51196 14.6764C2.37891 15.6938 2.32226 16.7197 2.34248 17.7455C2.47187 18.6748 2.72711 19.5822 3.10118 20.4427C3.75472 21.5325 4.23986 22.7149 4.54018 23.9497C4.55983 24.5379 4.50521 25.1263 4.37762 25.7009C4.27549 26.2348 4.10273 26.7528 3.8639 27.2411C4.55178 27.452 5.25998 27.5899 5.97675 27.6523C6.66674 27.6796 7.75205 26.5003 8.0556 26.1315C8.20917 25.9316 8.46254 25.8358 8.70995 25.8839C8.95736 25.9321 9.15628 26.1159 9.22368 26.3588C9.47454 27.0851 10.0856 28.4342 10.6562 28.6166C11.7804 28.978 14.1776 29.302 16.05 29.6664C16.05 29.6664 16.0751 27.8884 16.8998 27.4071C17.7244 26.9258 18.5863 26.3448 19.2124 25.9674L20.9763 24.5992Z" fill="white"/>
<path fill-rule="evenodd" clip-rule="evenodd" d="M20.9763 24.5992C21.5777 24.0744 22.4229 22.9375 23.775 21.5783C24.5434 20.8364 26.3383 19.492 26.9487 18.7373C27.3703 18.2884 27.5849 17.6838 27.5407 17.0696C27.487 15.9079 26.5779 14.9672 25.4187 14.8738C24.5069 14.8793 23.6169 15.1524 22.859 15.6592C22.3342 15.9906 21.8379 16.3651 21.3752 16.7789C21.0335 17.0689 20.9381 17.193 20.552 17.5279C20.1659 17.8628 19.8828 18.2178 20.1511 17.6638C20.4385 16.8283 20.9255 15.4255 21.4683 14.194C21.8821 13.2584 21.9638 13.1138 22.3137 12.4153C22.6636 11.7168 22.9042 11.1218 23.2913 10.3235C23.6564 9.53629 23.9799 8.73041 24.2604 7.90922C24.687 6.8721 24.7476 5.72061 24.4323 4.64442C23.942 3.9631 23.0906 3.64275 22.2728 3.83188C21.4071 4.24343 20.691 4.91401 20.2234 5.75071C19.5591 6.76313 19.0338 7.86015 18.6615 9.01238C18.0523 10.6767 17.0317 13.081 16.9142 13.5929C17.0379 12.9574 17.419 11.6409 17.4157 11.0163C17.4186 10.3663 17.0842 9.76138 16.5323 9.41807C16.0513 9.16155 15.517 9.02093 14.972 9.00742C14.4178 9.0151 13.8864 9.22961 13.4822 9.60887C12.8891 10.5335 12.4612 11.5542 12.2176 12.6253C12.3553 11.6726 12.3756 10.7066 12.2782 9.74894C12.0699 9.28862 11.7075 8.91543 11.2534 8.69372C10.7058 8.47936 10.1238 8.36608 9.53568 8.35939C9.0397 8.42443 8.5752 8.63869 8.20377 8.97374C7.66269 9.81395 7.25526 10.733 6.99603 11.6982C6.94922 11.9387 7.00617 11.0049 6.74528 10.3301C6.66237 9.70885 6.25433 9.17904 5.67487 8.94022C5.09541 8.7014 4.43256 8.78987 3.93601 9.17229C3.43946 9.55471 3.18464 10.173 3.26755 10.7942C3.05024 11.9108 3.06027 11.8592 2.91316 12.6151C2.76605 13.3709 2.63566 14.0408 2.51196 14.6764C2.37891 15.6938 2.32226 16.7197 2.34248 17.7455C2.47187 18.6748 2.72711 19.5822 3.10118 20.4427C3.75472 21.5325 4.23986 22.7149 4.54018 23.9497C4.55983 24.5379 4.50521 25.1263 4.37762 25.7009C4.27549 26.2348 4.10273 26.7528 3.8639 27.2411C4.55178 27.452 5.25998 27.5899 5.97675 27.6523C6.66674 27.6796 7.75205 26.5003 8.0556 26.1315C8.20917 25.9316 8.46254 25.8358 8.70995 25.8839C8.95736 25.9321 9.15628 26.1159 9.22368 26.3588C9.47454 27.0851 10.0856 28.4342 10.6562 28.6166C11.7804 28.978 14.1776 29.302 16.05 29.6664C16.05 29.6664 16.0751 27.8884 16.8998 27.4071C17.7244 26.9258 18.5863 26.3448 19.2124 25.9674L20.9763 24.5992Z" stroke="black" stroke-width="1.3125" stroke-linecap="round" stroke-linejoin="round"/>
<path d="M6.22723 22.7017L7.38128 16.7724C7.45035 16.4175 7.79475 16.1859 8.15052 16.2551C8.50628 16.3244 8.73868 16.6682 8.6696 17.0231L7.51555 22.9525C7.44648 23.3074 7.10208 23.539 6.74632 23.4697C6.39055 23.4005 6.15815 23.0566 6.22723 22.7017Z" fill="black"/>
<path d="M9.62886 23.3617L10.8178 17.436C10.8888 17.0823 11.2344 16.8534 11.5898 16.9247C11.9451 16.996 12.1757 17.3404 12.1047 17.6941L10.9157 23.6198C10.8448 23.9735 10.4992 24.2024 10.1438 24.1311C9.78844 24.0599 9.55789 23.7154 9.62886 23.3617Z" fill="black"/>
<path d="M15.5391 18.3689L14.3524 24.2824C14.2808 24.6394 13.9346 24.871 13.5793 24.7997C13.224 24.7284 12.994 24.3811 13.0656 24.0241L14.2522 18.1106C14.3239 17.7536 14.67 17.5219 15.0254 17.5933C15.3807 17.6646 15.6107 18.0119 15.5391 18.3689Z" fill="black"/>
</svg>
