<svg width="35" height="35" fill="none" xmlns="http://www.w3.org/2000/svg"><path d="M19.8 4.093h-4.957a2.893 2.893 0 0 0-2.89 2.89v3.304a2.893 2.893 0 0 0 2.89 2.89H19.8a2.893 2.893 0 0 0 2.89-2.89V6.983a2.893 2.893 0 0 0-2.89-2.89zm1.238 6.2c0 .685-.558 1.237-1.238 1.237h-4.957a1.239 1.239 0 0 1-1.238-1.237V6.988c0-.685.558-1.238 1.238-1.238H19.8c.685 0 1.238.558 1.238 1.238v3.305zM10.285 31.389c-.112.44-.58.802-1.03.802H6.826c-.457 0-.92-.362-1.031-.803l-.223-.876c-.112-.441.17-.802.621-.802h3.687c.457 0 .733.361.622.802l-.218.877zM9.185 8.64a.754.754 0 0 1-.76.824H5.999a.75.75 0 0 1-.76-.824l.07-.828a.913.913 0 0 1 .892-.824h2.03c.456 0 .854.372.892.824l.063.828zm20.252 0a.754.754 0 0 1-.76.824h-2.433a.75.75 0 0 1-.76-.824l.07-.828a.913.913 0 0 1 .892-.824h2.029c.457 0 .855.372.892.824l.07.828zm-.558 22.748c-.112.441-.58.803-1.03.803H25.42c-.457 0-.919-.362-1.03-.803l-.223-.876c-.112-.441.17-.802.621-.802h3.687c.457 0 .733.361.622.802l-.218.877z" fill="#0075B1"/><path d="M32.194 27.643a3.315 3.315 0 0 1-3.304 3.305H5.749a3.308 3.308 0 0 1-3.305-3.305V11.116A3.315 3.315 0 0 1 5.75 7.812H28.89a3.315 3.315 0 0 1 3.304 3.304v16.527z" fill="#74DBFF"/><path d="M28.89 29.71H5.749c-1.817 0-3.305-2.311-3.305-4.128v2.066a3.315 3.315 0 0 0 3.305 3.305H28.89a3.315 3.315 0 0 0 3.304-3.305v-2.066c0 1.817-1.487 4.128-3.304 4.128z" fill="#5FC7EB"/><path d="M28.89 7.812H5.749a3.315 3.315 0 0 0-3.305 3.304v1.238A3.315 3.315 0 0 1 5.75 9.049H28.89a3.315 3.315 0 0 1 3.304 3.305v-1.238a3.315 3.315 0 0 0-3.304-3.304z" fill="#A3E7FF"/><path d="M17.32 24.96a6 6 0 0 1-5.993-5.992 6 6 0 0 1 5.993-5.993 6 6 0 0 1 5.992 5.993 6 6 0 0 1-5.992 5.992z" fill="#FF5722"/><path d="M17.32 11.796c-3.953 0-7.172 3.22-7.172 7.172 0 3.952 3.219 7.172 7.171 7.172 3.953 0 7.172-3.22 7.172-7.172 0-3.953-3.22-7.172-7.172-7.172z" fill="#fff"/><path d="M17.32 24.546a5.584 5.584 0 0 1-5.579-5.578 5.584 5.584 0 0 1 5.578-5.578 5.584 5.584 0 0 1 5.579 5.578 5.584 5.584 0 0 1-5.579 5.578z" fill="#FF5722"/><path d="M17.32 12.327a6.643 6.643 0 0 0-6.641 6.64 6.643 6.643 0 0 0 6.64 6.642 6.643 6.643 0 0 0 6.641-6.641 6.643 6.643 0 0 0-6.64-6.64z" fill="#DF4E33"/><path d="M13.187 17.73h8.266v2.481h-8.266v-2.48z" fill="#fff"/><path d="M16.081 14.835h2.481V23.1h-2.48v-8.266z" fill="#fff"/></svg>