<svg xmlns="http://www.w3.org/2000/svg" viewBox="0 0 26.3 34"><g><path d="M23.11,4H7.79a3.78,3.78,0,0,0-1.3,2.71H21.91a1.54,1.54,0,0,1,1.54,1.54V26.46h0v3.3a1.54,1.54,0,0,1-1.53,1.53H6.58A3.81,3.81,0,0,0,9,34H23.11a3.19,3.19,0,0,0,3.19-3.19V7.19A3.19,3.19,0,0,0,23.11,4Z" fill="#ff8e6c"/><path d="M6.57,31.29H4.39a1.53,1.53,0,0,1-1.53-1.54V8.25A1.54,1.54,0,0,1,4.11,6.74a1.33,1.33,0,0,1,.28,0h2.1A3.78,3.78,0,0,1,7.79,4H3.19A3.19,3.19,0,0,0,0,7.19V30.81A3.19,3.19,0,0,0,3.19,34H9a3.81,3.81,0,0,1-2.38-2.71Z" fill="#ff5e2d"/><path d="M23.44,26.46h0V8.25a1.54,1.54,0,0,0-1.54-1.54H6.49a1.1,1.1,0,0,0,0,.18V30.43a3.37,3.37,0,0,0,.09.77.29.29,0,0,0,0,.09H21.92a1.54,1.54,0,0,0,1.53-1.53v-3.3Z" fill="#fff4e5"/><path d="M6.56 31.2a3.31 3.31 0 0 1 -.09 -.77V6.89c0-.06 0-.12 0-.18H4.39a1.33 1.33 0 0 0 -.28 0A1.54 1.54 0 0 0 2.86 8.25v21.5a1.53 1.53 0 0 0 1.53 1.54H6.57A.28 .28 0 0 1 6.56 31.2" fill="#ffe0b7"/><path d="M17.33,3.07h-.6A.36.36,0,0,1,16.49,3a.32.32,0,0,1-.12-.22,3.26,3.26,0,0,0-6.44,0A.32.32,0,0,1,9.81,3a.36.36,0,0,1-.24.09H9A1.35,1.35,0,0,0,7.62,4.42V6.86A1.35,1.35,0,0,0,9,8.21h8.36a1.35,1.35,0,0,0,1.35-1.35V4.42A1.35,1.35,0,0,0,17.33,3.07Z" fill="#74dbff"/><g fill="#0075b1"><path d="M7.29,15.81h0a.59.59,0,0,1-.22-.05.62.62,0,0,1-.18-.14L5.64,14.06a.54.54,0,0,1-.11-.37.53.53,0,0,1,.19-.34.52.52,0,0,1,.72.07l.86,1.06,1.86-2.27a.64.64,0,0,1,.15-.13A.45.45,0,0,1,9.5,12a.44.44,0,0,1,.2,0,.38.38,0,0,1,.18.09.64.64,0,0,1,.13.15.46.46,0,0,1,.05.2.69.69,0,0,1,0,.2.59.59,0,0,1-.1.17L7.69,15.62a.49.49,0,0,1-.18.14A.51.51,0,0,1,7.29,15.81Zm0,5.42h0a.59.59,0,0,1-.22-.05A.62.62,0,0,1,6.89,21L5.64,19.48a.54.54,0,0,1-.11-.37.53.53,0,0,1,.19-.34.52.52,0,0,1,.72.07L7.3,19.9l1.86-2.27a.64.64,0,0,1,.15-.13.45.45,0,0,1,.19-.05.44.44,0,0,1,.2,0,.51.51,0,0,1,.18.09.93.93,0,0,1,.13.15.46.46,0,0,1,.05.2.69.69,0,0,1,0,.2.59.59,0,0,1-.1.17L7.69,21a.49.49,0,0,1-.18.14A.51.51,0,0,1,7.29,21.23Zm0,5.42h0a.59.59,0,0,1-.22,0,.62.62,0,0,1-.18-.14L5.64,24.9a.54.54,0,0,1-.11-.37.53.53,0,0,1,.19-.34.48.48,0,0,1,.38-.11.52.52,0,0,1,.34.18l.86,1.06,1.86-2.27a.5.5,0,0,1,.34-.18.48.48,0,0,1,.38.11.52.52,0,0,1,.18.35.46.46,0,0,1-.11.37L7.69,26.46a.49.49,0,0,1-.18.14A.51.51,0,0,1,7.29,26.65Z"/><path d="M20.26,14.43H11.91a.52.52,0,1,1,0-1h8.35a.52.52,0,1,1,0,1Zm0,5.42H11.91a.52.52,0,1,1,0-1h8.35a.5.5,0,0,1,.36.15.66.66,0,0,1,.12.17.5.5,0,0,1,0,.39.66.66,0,0,1-.12.17.46.46,0,0,1-.16.11A.45.45,0,0,1,20.26,19.85Zm0,5.42H11.91a.52.52,0,1,1,0-1h8.35a.5.5,0,0,1,.36.15.66.66,0,0,1,.12.17.5.5,0,0,1,0,.39.66.66,0,0,1-.12.17.46.46,0,0,1-.16.11A.45.45,0,0,1,20.26,25.27Z"/></g></g></svg>