<svg xmlns="http://www.w3.org/2000/svg" xmlns:xlink="http://www.w3.org/1999/xlink" viewBox="0 0 30 30"><defs><linearGradient id="b" x1="4.39" y1="27.61" x2="25.61" y2="6.39" gradientTransform="matrix(1 0 0 -1 0 32)" gradientUnits="userSpaceOnUse"><stop offset="0" stop-color="#fd7f60"/><stop offset="1" stop-color="#fa262a"/></linearGradient><linearGradient id="a" x1="7.08" y1="24.92" x2="22.91" y2="9.09" gradientTransform="matrix(1 0 0 -1 0 32)" gradientUnits="userSpaceOnUse"><stop offset="0" stop-color="#ffece7"/><stop offset="1" stop-color="#fcbca3"/></linearGradient><linearGradient id="c" x1="11.81" y1="25.62" x2="18.19" y2="19.23" xlink:href="#a"/></defs><g data-name="Слой 2"><g data-name="Слой 1"><path d="M15 30A15 15 0 1 0 0 15a15 15 0 0 0 15 15z" style="fill:url(#b)"/><path d="M18.2 6.64A1.61 1.61 0 0 0 19 8a8 8 0 1 1-8 0 1.57 1.57 0 1 0-1.56-2.71 11.18 11.18 0 1 0 11.1 0 1.57 1.57 0 0 0-2.34 1.35z" style="fill:url(#a)"/><path d="M16.6 5.57v8a1.7 1.7 0 0 1-1.6 1.78 1.7 1.7 0 0 1-1.6-1.77v-8A1.69 1.69 0 0 1 15 3.81a1.69 1.69 0 0 1 1.6 1.76z" style="fill:url(#c)"/></g></g></svg>