<svg width="192" height="74" fill="none" xmlns="http://www.w3.org/2000/svg"><mask id="a" maskUnits="userSpaceOnUse" x="0" y="-.08" width="192" height="74" fill="#000"><path fill="#fff" d="M0-.08h192v74H0z"/><path d="M95.724 2C34.474 2 2 50.286 2 50.286l13.31 9.993s1.61-4.48 5.299-10.887c.015 1.606.213 2.726.213 2.726 2.352 20.29 20.094 19.801 20.094 19.801h109.986s17.978.55 20.325-19.726c0 0 .191-1.046.201-2.641 3.614 6.248 5.203 10.592 5.203 10.592l13.304-9.888S156.97 2 95.724 2z"/></mask><path d="M95.724 2C34.474 2 2 50.286 2 50.286l13.31 9.993s1.61-4.48 5.299-10.887c.015 1.606.213 2.726.213 2.726 2.352 20.29 20.094 19.801 20.094 19.801h109.986s17.978.55 20.325-19.726c0 0 .191-1.046.201-2.641 3.614 6.248 5.203 10.592 5.203 10.592l13.304-9.888S156.97 2 95.724 2z" fill="#DA181F"/><path d="m2 50.286-.84 1.12a1.4 1.4 0 0 1-.322-1.902L2 50.286zm13.31 9.993 1.319.473a1.4 1.4 0 0 1-2.16.647l.842-1.12zm5.299-10.887-1.214-.699a1.4 1.4 0 0 1 2.614.686l-1.4.013zm.213 2.726 1.38-.244.011.083-1.39.161zM40.916 71.92l-.038-1.4h.038v1.4zm109.986 0v-1.4h.042l-.042 1.4zm20.325-19.726-1.391-.161a1.4 1.4 0 0 1 .013-.091l1.378.252zm.201-2.641-1.401-.009a1.4 1.4 0 0 1 2.613-.692l-1.212.7zm5.203 10.592.836 1.123a1.401 1.401 0 0 1-2.151-.642l1.315-.481zm13.304-9.888 1.156-.79a1.4 1.4 0 0 1-.321 1.913l-.835-1.123zM95.724 3.4c-30.237 0-53.377 11.915-68.98 23.855-7.802 5.97-13.71 11.94-17.664 16.414a97.9 97.9 0 0 0-4.452 5.392 60.347 60.347 0 0 0-1.382 1.884l-.066.096-.015.022a.342.342 0 0 1-.003.004L2 50.287c-1.162-.782-1.162-.782-1.161-.783L.84 49.5l.006-.008a5.606 5.606 0 0 1 .097-.142 62.902 62.902 0 0 1 1.458-1.988 100.768 100.768 0 0 1 4.58-5.548c4.049-4.58 10.087-10.682 18.06-16.783C40.988 12.828 64.71.6 95.724.6v2.8zM2.841 49.166l13.31 9.993-1.681 2.24-13.31-9.993 1.68-2.24zm12.47 11.113a452.374 452.374 0 0 1-1.318-.474v-.002l.002-.004.005-.013.016-.044.062-.165a35.9 35.9 0 0 1 .242-.62c.215-.536.54-1.314.98-2.293a90.56 90.56 0 0 1 4.095-7.97l2.427 1.396a87.784 87.784 0 0 0-3.968 7.722A58.443 58.443 0 0 0 16.92 60a32.997 32.997 0 0 0-.277.712l-.012.033-.002.007-1.318-.473zm6.698-10.9c.007.75.057 1.385.104 1.83a13.93 13.93 0 0 0 .088.662v.005-.001l-1.379.243-1.379.245v-.003l-.001-.005-.003-.015-.008-.05a16.924 16.924 0 0 1-.103-.784 21.776 21.776 0 0 1-.12-2.101l2.801-.026zm.204 2.578c1.12 9.657 5.843 14.211 10.175 16.423 2.202 1.124 4.344 1.66 5.94 1.915.796.127 1.449.183 1.896.207a11.907 11.907 0 0 0 .629.017h.028-.002l.037 1.4c.039 1.4.038 1.4.037 1.4h-.008a2.188 2.188 0 0 1-.067.001h-.176c-.15-.002-.361-.007-.628-.021a21.224 21.224 0 0 1-2.187-.238c-1.805-.288-4.245-.896-6.772-2.187-5.127-2.616-10.451-7.963-11.684-18.594l2.782-.323zM40.916 70.52h109.986v2.8H40.916v-2.8zm109.986 1.4.041-1.4h-.001s-.001 0 0 0h.152c.114 0 .288-.004.515-.015a18.874 18.874 0 0 0 1.925-.2c1.619-.25 3.792-.78 6.023-1.897 4.39-2.198 9.162-6.734 10.279-16.375l2.782.322c-1.231 10.634-6.622 15.961-11.807 18.557-2.557 1.28-5.025 1.88-6.85 2.161-.915.141-1.675.203-2.213.23a15.152 15.152 0 0 1-.863.017h-.024c-.001 0-.002 0 .041-1.4zm20.325-19.726-1.378-.252v.002-.003l.004-.024.018-.115c.016-.106.038-.268.06-.479.045-.422.092-1.035.096-1.779l2.801.018a20.81 20.81 0 0 1-.112 2.058c-.026.25-.053.45-.074.59l-.025.164-.008.048-.003.015-.001.005v.002l-.001.001-1.377-.251zm1.413-3.342a90.44 90.44 0 0 1 4.02 7.76c.433.951.752 1.707.964 2.228.106.26.185.463.239.602l.061.16.016.043.004.012.002.004v.001c.001.001.001.001-1.315.483l-1.315.481h.001-.001l-.002-.007a.388.388 0 0 1-.012-.032l-.052-.137c-.048-.124-.121-.31-.22-.554a59.04 59.04 0 0 0-.92-2.125 87.718 87.718 0 0 0-3.894-7.517l2.424-1.402zm3.156 10.169 13.303-9.888 1.671 2.248-13.303 9.887-1.671-2.248zm14.139-8.764-1.156.79h-.001c0-.002-.001-.003-.003-.005a1.683 1.683 0 0 0-.015-.023l-.067-.095a60.91 60.91 0 0 0-1.402-1.884 99.36 99.36 0 0 0-4.508-5.39c-4-4.47-9.969-10.438-17.833-16.406C149.222 15.308 125.96 3.4 95.724 3.4V.6c31.01 0 54.853 12.22 70.919 24.412 8.033 6.096 14.133 12.193 18.228 16.77 2.048 2.289 3.596 4.2 4.635 5.543a61.962 61.962 0 0 1 1.478 1.986l.078.112.02.03a.046.046 0 0 1 .006.008l.002.003c.001 0 .001.002-1.155.792z" fill="#fff" mask="url(#a)"/><path d="M168.599 52.546s-2.398 15.261-17.839 15.261H40.919c-15.44 0-17.614-15.402-17.614-15.402-.593-4.089.13-6.887 1.285-8.823 11.118-15.991 33.12-37.47 71.156-37.47 38.36 0 60.547 21.788 71.66 37.782 1.285 1.784 1.767 4.694 1.193 8.652z" fill="#fff"/><path d="m63.503 34.988 1.782-4.197H42.457l-1.79 4.197h8.843l-9.155 20.48h5.911l9.151-20.48h8.086z" fill="#DA181F"/><path d="M147.219 48.007c-1.735 2.816-4.195 4.244-5.496 3.18-1.299-1.066-.941-4.21.795-7.026s4.2-4.247 5.497-3.183c1.303 1.07.94 4.213-.796 7.029zm-20.437-.108c-1.746 2.822-4.205 4.244-5.504 3.18-1.291-1.064-.946-4.207.795-7.029 1.743-2.816 4.208-4.241 5.499-3.18 1.291 1.064.946 4.213-.79 7.029zm-25.399-2.048s1.131-4.373 4.791-6.122c0 0 1.042-.407 1.6.12 0 0 .783.867-.148 2.474-.835 1.434-2.84 4.028-5.015 4.902 0 0-1.973.992-1.228-1.374zm-35.652 2.048c-1.746 2.822-4.2 4.244-5.497 3.18-1.299-1.064-.95-4.207.785-7.029 1.741-2.816 4.205-4.241 5.502-3.18 1.303 1.064.94 4.213-.79 7.029zm87.306 3.425s-1.178.632-1.684.023c-.506-.603-.054-1.727-.054-1.727l4.933-11.95h-5.03l-.77 1.595c-2.939-2.978-8.465-1.44-11.887 2.683-1.978 2.375-3.096 5.194-3.247 7.646a14.134 14.134 0 0 1-2.701 1.625s-1.181.637-1.692.023c-.506-.604-.049-1.733-.049-1.733l8.758-20.766h-5.025l-4.6 10.414c-2.938-2.973-8.459-1.44-11.889 2.683a15.946 15.946 0 0 0-1.761 2.64l.005-.02c-.032.074-.066.153-.101.222-.111.216-.217.423-.308.634-2.734 5.456-6.134 6.36-6.134 6.36-7.185 2.476-8.005-1.578-8.005-1.578 8.047-3.428 11.072-7.487 10.793-10.594-.272-3.11-3.976-3.271-3.976-3.271-6.086-.421-11.356 4.483-12.635 9.282-.385 1.462-.506 2.964-.269 4.333-2.437 1.496-3.84 1.735-3.84 1.735-2.024.737-2.276-.37-2.516-1.044-.246-.691-1.162-6.663-1.162-6.663l8.545-6.44H91.51l-6.42 4.586c-1.447.691-.886-1.061-.886-1.061l5.242-12.227H84.41l-8.504 19.85c-.978.677-2.936 1.986-4.363 2.635 0 0-1.178.637-1.684.023-.516-.604-.057-1.733-.057-1.733l4.939-11.948h-5.032l-.77 1.596c-2.937-2.973-8.465-1.44-11.888 2.683-3.43 4.124-4.303 9.564-1.958 12.15 1.874 2.068 5.247 1.68 8.274-.666 0 0 .764-.757 1.178.128.427.922 2.16 3.004 6.154 1.189a27.326 27.326 0 0 0 3.415-1.87l-1.043 2.43h5.025l2.521-5.868 2.19-1.608s.672-.608.936.692c0 0 1.09 4.94 1.51 5.578.424.646 1.263 2.105 4.8.936 2.708-.902 5.231-2.005 6.567-2.663 1.183 1.884 3.452 3.155 7.191 3.155 5.511 0 9.41-3.032 11.054-4.611.119 1.257.539 2.361 1.282 3.178 1.872 2.068 5.242 1.68 8.267-.666 0 0 .765-.757 1.185.128.43.922 2.156 3.004 6.153 1.189 1.835-.834 3.06-1.63 3.865-2.25a4.78 4.78 0 0 0 .968 1.71c1.881 2.059 5.247 1.678 8.271-.675 0 0 .768-.76 1.188.134.422.922 2.161 3.007 6.148 1.186 3.998-1.812 5.141-3.456 5.141-3.456l-1.007-2.048c-.141.09-1.371 1.214-3.289 2.082" fill="#DA181F"/></svg>